<svg display="none" xmlns="http://www.w3.org/2000/svg">
    <symbol id="vector"  viewBox="0 0 23 20">
        <g>
                <path d="M1.00488 15.1236L1.6095 17.543C1.71479 17.9643 1.95788 18.3383 2.30011 18.6055C2.64234 18.8728 3.06408 19.018 3.4983 19.018H17.9837C18.4179 19.018 18.8396 18.8728 19.1819 18.6055C19.5241 18.3383 19.7672 17.9643 19.8725 17.543L20.4771 15.1236M10.741 13.1764V1.49305V13.1764ZM10.741 13.1764L6.84655 9.28194L10.741 13.1764ZM10.741 13.1764L14.6354 9.28194L10.741 13.1764Z" stroke="#FCC028" stroke-width="1.94722" stroke-linecap="round" stroke-linejoin="round"/>
        </g>
    </symbol>
    <symbol id="medal1" viewBox="0 0 50 52">
        <g>
            <path d="M25.0936 6.86633C25.087 6.86468 25.0804 6.86468 25.0738 6.86633C25.0672 6.86633 25.0606 6.86469 25.054 6.86469V6.86633C16.5519 6.97022 9.6626 13.914 9.6626 22.4407C9.6626 30.9692 16.5519 37.9096 25.054 38.0152V38.0168C25.0606 38.0168 25.0672 38.0168 25.0738 38.0152C25.0804 38.0152 25.087 38.0168 25.0936 38.0168V38.0152C33.5972 37.9129 40.4849 30.9725 40.4849 22.4407C40.4866 13.9173 33.5972 6.97352 25.0936 6.86633Z"/>
            <path d="M43.3494 35.5302C43.7979 34.8788 44.1013 34.1912 44.2316 33.5316C44.3717 32.8374 44.3338 32.1861 44.1508 31.6271L44.1475 31.6238C44.1442 31.6123 44.1409 31.5991 44.1376 31.5892C44.1277 31.5677 44.1178 31.5446 44.1145 31.5216L44.1112 31.5133C43.8705 30.8274 43.8408 29.9781 44.0255 29.1042L44.0172 29.0992C44.0518 28.9508 44.0881 28.8041 44.1359 28.654C44.2679 28.255 44.4394 27.884 44.6356 27.5476C45.3809 26.4972 47.5262 25.5903 47.5262 22.3105C47.5262 18.8773 44.7593 17.9473 44.2382 16.4534C44.225 16.4204 44.2085 16.4023 44.1953 16.3726C44.1673 16.3 44.1392 16.2308 44.1145 16.1566C43.7831 15.1095 43.755 14.0706 44.0288 13.2511L44.0502 13.195C44.2283 12.6657 44.2728 12.0309 44.1574 11.3564H44.1557V11.3515C44.1409 11.2658 44.1211 11.18 44.103 11.0926L44.1013 11.0662C44.0815 10.9887 44.0617 10.9096 44.0387 10.8321L44.0205 10.7727C44.004 10.7051 43.9809 10.6359 43.9546 10.5699L43.9216 10.4809L43.8573 10.3176L43.8078 10.189L43.7583 10.0835C43.7303 10.0224 43.7039 9.96473 43.6742 9.90537L43.6594 9.87733C43.5225 9.6135 43.3642 9.35296 43.1812 9.10232L43.1482 9.0578L43.1301 9.03472C42.6304 8.35699 42.0335 7.83098 41.4152 7.48634C40.7985 7.13841 40.1636 6.97187 39.5815 6.97681H39.5749C39.5601 6.97681 39.5485 6.97681 39.5386 6.97517C39.5139 6.97681 39.4925 6.97846 39.4661 6.97681H39.4562C38.7323 6.9966 37.9128 6.7608 37.1394 6.31228L37.1345 6.31723C37.0075 6.23973 36.8772 6.15563 36.7519 6.06494C35.8664 5.41195 35.2382 4.58583 34.9809 3.763L34.9611 3.70363C34.7962 3.17102 34.4599 2.63346 33.9685 2.15526V2.15361C33.9058 2.09095 33.8398 2.02994 33.7722 1.97387L33.7492 1.95244C33.6881 1.90132 33.6271 1.84855 33.5628 1.79909L33.515 1.76116L33.3402 1.63419L33.2627 1.58142L33.1143 1.48413L32.9989 1.41323L32.8966 1.35552C32.8389 1.32089 32.7812 1.29121 32.7235 1.26152L32.6955 1.24668C32.4333 1.11312 32.1513 0.994393 31.8545 0.898754L31.8017 0.882264L31.7688 0.870722C30.9674 0.62008 30.1742 0.545877 29.4701 0.628325C28.766 0.712422 28.1542 0.948223 27.6876 1.29945L27.681 1.3011C27.6711 1.31099 27.6595 1.31759 27.648 1.32419C27.6315 1.34232 27.6134 1.35552 27.5903 1.36706L27.5853 1.372C27.0066 1.81722 26.2101 2.10414 25.318 2.19978V2.20803C25.2372 2.21627 25.1548 2.21792 25.074 2.21957C24.9915 2.21792 24.9091 2.21792 24.8299 2.20803V2.20143C23.9378 2.10579 23.1398 1.81887 22.5626 1.37365L22.5577 1.36871C22.5379 1.35387 22.5181 1.34232 22.5016 1.32254C22.4901 1.31594 22.4785 1.30934 22.4686 1.29945L22.4637 1.2978C21.9954 0.946574 21.3836 0.710773 20.6795 0.626676C19.9771 0.544228 19.1856 0.618431 18.3809 0.869073L18.3495 0.880615L18.2968 0.898754C17.9999 0.994393 17.7196 1.11312 17.4558 1.24668L17.4278 1.26152C17.37 1.29121 17.3123 1.32089 17.2546 1.35552L17.1524 1.41323L17.037 1.48413L16.8886 1.58142L16.811 1.63419L16.6396 1.75786L16.5901 1.79744C16.5258 1.84691 16.4648 1.89802 16.4038 1.94914L16.3807 1.97058C16.3131 2.02664 16.2471 2.08765 16.1844 2.15031L16.1828 2.15196C15.6914 2.63016 15.3567 3.16937 15.1918 3.70033L15.172 3.76135C14.9164 4.58418 14.2881 5.41195 13.4027 6.06329C13.2757 6.15728 13.1438 6.23973 13.0184 6.31723L13.0118 6.31064C12.2385 6.75915 11.4206 6.99495 10.6967 6.97681H10.6868C10.6604 6.97846 10.6373 6.97681 10.6143 6.97517C10.5994 6.97681 10.5912 6.97681 10.5747 6.97681H10.5697C9.98436 6.97187 9.35281 7.13676 8.7361 7.48469C8.11774 7.82933 7.52082 8.35534 7.02118 9.03307L7.00139 9.0578L6.96842 9.10397C6.78373 9.35296 6.62708 9.61515 6.49022 9.87898L6.47538 9.90537C6.44734 9.96473 6.41931 10.0224 6.39293 10.0835L6.34346 10.189L6.29234 10.3176L6.22803 10.4825L6.19835 10.5699C6.17362 10.6359 6.15053 10.7051 6.13239 10.7711L6.11425 10.8321C6.09117 10.9079 6.06808 10.9871 6.05159 11.0662L6.04665 11.0943C6.02686 11.18 6.00542 11.2691 5.99223 11.3515V11.3548C5.8768 12.0309 5.92133 12.6641 6.10106 13.195L6.12085 13.2511C6.39458 14.0706 6.36655 15.1095 6.03511 16.1566C6.01202 16.2291 5.98234 16.2984 5.95431 16.3709C5.93947 16.4006 5.92298 16.4204 5.91143 16.4517C5.39036 17.9457 2.62341 18.8757 2.62341 22.3088C2.62341 25.5886 4.7687 26.4955 5.51403 27.5459C5.71026 27.8823 5.8801 28.2533 6.01367 28.6524C6.06149 28.8024 6.09941 28.9492 6.13239 29.0976L6.12415 29.1025C6.31048 29.9765 6.28245 30.8257 6.04005 31.5117L6.03675 31.5199C6.03346 31.543 6.02356 31.5661 6.01367 31.5875C6.01037 31.6007 6.00707 31.6139 6.00377 31.6221L6.00048 31.6254C5.81579 32.1844 5.77952 32.8358 5.91968 33.53C6.04995 34.1879 6.35335 34.8772 6.80187 35.5285L0.735352 46.8948H7.20587L10.4922 51.878L16.0839 42.6702C16.1284 42.7147 16.1581 42.7691 16.2059 42.812C16.727 43.2885 17.4129 43.6942 18.2143 43.9564C18.5111 44.0536 18.8079 44.1229 19.0998 44.1691L19.1295 44.174C19.1971 44.1839 19.2614 44.1905 19.3241 44.1988L19.4461 44.2152L19.5813 44.2268L19.7561 44.2383H19.8517H20.0644H20.1238C20.2046 44.2334 20.2871 44.2301 20.3646 44.2218L20.3942 44.2202C20.4849 44.2119 20.5723 44.1971 20.6614 44.1856H20.663C21.3407 44.085 21.9278 43.8475 22.3746 43.5128L22.4225 43.4782C23.0837 42.9851 24.0318 42.6949 25.0756 42.6636C26.1194 42.6966 27.0676 42.9851 27.7288 43.4782L27.775 43.5128C28.2218 43.8475 28.8089 44.0883 29.4882 44.1856C29.5789 44.1971 29.6647 44.2119 29.7554 44.2202L29.7867 44.2218C29.8659 44.2301 29.9483 44.2334 30.0275 44.2383H30.0868H30.3012H30.3952L30.57 44.2268L30.7052 44.2152L30.8272 44.1988C30.8899 44.1905 30.9542 44.1839 31.0218 44.174L31.0515 44.1691C31.345 44.1229 31.6401 44.0536 31.9369 43.9564C32.7367 43.6942 33.4227 43.2885 33.947 42.812C33.9932 42.7691 34.0245 42.7147 34.0674 42.6702L39.6607 51.878L42.9454 46.8965H49.4159L43.3494 35.5302ZM41.0804 27.1996C40.899 27.8131 40.6863 28.4133 40.434 29.0053C39.5832 31.0137 38.3695 32.8176 36.8212 34.366C35.2744 35.9127 33.4721 37.1313 31.4653 37.9772C29.4388 38.833 27.2918 39.2717 25.0756 39.2948C22.8611 39.2717 20.7125 38.833 18.6876 37.9772C16.6791 37.1264 14.8768 35.9127 13.3301 34.366C11.7817 32.8193 10.5648 31.0137 9.71723 29.0053C9.46659 28.4166 9.25387 27.8131 9.07084 27.1996C8.86966 26.4642 8.39147 24.5003 8.39147 22.4424C8.39147 19.8354 9.07084 17.6852 9.07084 17.6852C9.25222 17.0734 9.46494 16.4715 9.71723 15.8779C10.5664 13.8695 11.7834 12.0688 13.3317 10.5204C14.8785 8.9737 16.6808 7.75677 18.6892 6.90756C20.7158 6.05175 22.8627 5.61313 25.0773 5.59169C27.2918 5.61313 29.4404 6.05175 31.467 6.90756C33.4738 7.75677 35.2777 8.9737 36.8228 10.5204C38.3712 12.0688 39.5898 13.8711 40.4357 15.8779C40.6863 16.4699 40.899 17.0734 41.0821 17.6852C41.0821 17.6852 41.7614 19.8354 41.7614 22.4424C41.7598 24.5003 41.2816 26.4642 41.0804 27.1996Z"/>
        </g>
    </symbol>
    <symbol id="medal2" viewBox="0 0 49 54">
        <g>
            <path d="M42.0302 37.3262L37.0772 44.4424L33.5819 41.5738C33.2049 41.2623 32.6464 41.3189 32.3366 41.696C32.0259 42.0739 32.0808 42.6324 32.4596 42.9413L36.6957 46.4189C36.8541 46.5499 37.0533 46.6198 37.2569 46.6198C37.2967 46.6198 37.3374 46.6171 37.3781 46.6109C37.6224 46.5773 37.8419 46.4428 37.9835 46.2401L43.4836 38.337C43.7624 37.936 43.6641 37.3846 43.2623 37.1049C42.8604 36.8244 42.3099 36.9244 42.0302 37.3262Z" fill="#FCC028"/>
            <path d="M38.3318 30.7331V6.79019C38.3318 6.30073 37.9353 5.90509 37.4467 5.90509H30.3659V4.13489C30.3659 3.64543 29.9694 3.24979 29.4808 3.24979H24.1702V1.47958C24.1702 0.990123 23.7737 0.594482 23.2851 0.594482H15.3192C14.8306 0.594482 14.4341 0.990123 14.4341 1.47958V3.24979H9.12347C8.6349 3.24979 8.23837 3.64543 8.23837 4.13489V5.90509H1.15756C0.668986 5.90509 0.272461 6.30073 0.272461 6.79019V51.0452C0.272461 51.5347 0.668986 51.9303 1.15756 51.9303H31.343C33.115 53.0456 35.2039 53.7005 37.4467 53.7005C43.7911 53.7005 48.953 48.5386 48.953 42.1942C48.953 36.1481 44.2629 31.1871 38.3318 30.7331ZM16.2043 2.36468H22.4V4.13489V5.90509H16.2043V4.13489V2.36468ZM10.0086 5.01999H14.4341V6.79019C14.4341 7.27965 14.8306 7.67529 15.3192 7.67529H23.2851C23.7737 7.67529 24.1702 7.27965 24.1702 6.79019V5.01999H28.5957V6.79019V8.56039H10.0086V6.79019V5.01999ZM2.04266 50.1601V7.67529H8.23837V9.44549C8.23837 9.93495 8.6349 10.3306 9.12347 10.3306H29.4808C29.9694 10.3306 30.3659 9.93495 30.3659 9.44549V7.67529H36.5616V30.7216C36.5112 30.7251 36.4625 30.7357 36.412 30.7401C36.2394 30.7561 36.0695 30.7809 35.8995 30.8048C35.6969 30.8322 35.4933 30.8596 35.2941 30.8968C35.1233 30.9296 34.9569 30.9703 34.7887 31.0101C34.5949 31.0561 34.4011 31.103 34.2117 31.1588C34.0461 31.2075 33.8842 31.2632 33.7222 31.319C33.5363 31.3827 33.3522 31.4482 33.1708 31.5217C33.0123 31.5854 32.8566 31.6544 32.7008 31.7253C32.5238 31.8058 32.3494 31.889 32.1777 31.9775C32.0263 32.0554 31.8776 32.1377 31.7307 32.2227C31.5643 32.3183 31.4006 32.4174 31.2395 32.5218C31.0961 32.6139 30.9554 32.7086 30.8173 32.8069C30.6606 32.9175 30.5084 33.0326 30.3579 33.1512C30.2252 33.2556 30.0942 33.3609 29.9667 33.4707C29.8207 33.5964 29.6791 33.7265 29.5401 33.8592C29.4188 33.9743 29.2985 34.0902 29.1816 34.2106C29.0471 34.3496 28.9188 34.4939 28.7913 34.6399C28.6815 34.7656 28.5718 34.8904 28.4682 35.0205C28.3461 35.1727 28.2319 35.3303 28.1177 35.4887C28.0213 35.6232 27.923 35.756 27.8319 35.895C27.723 36.0605 27.6239 36.2313 27.5229 36.4021C27.4406 36.5438 27.3557 36.6827 27.2787 36.827C27.184 37.0067 27.0999 37.1916 27.014 37.3757C26.9468 37.5218 26.8751 37.6652 26.8131 37.8148C26.7334 38.0086 26.6653 38.2077 26.5963 38.406C26.544 38.5538 26.4874 38.6999 26.4414 38.8503C26.3767 39.0627 26.3272 39.2805 26.275 39.4973C26.2404 39.6416 26.1988 39.7823 26.1687 39.9284C26.1201 40.1718 26.0882 40.4214 26.0555 40.6701C26.0386 40.7958 26.0139 40.9179 26.0006 41.0445C25.9607 41.4242 25.9404 41.8066 25.9404 42.1942C25.9404 42.5793 25.9607 42.9616 25.9988 43.3396C26.013 43.4829 26.0413 43.621 26.0608 43.7635C26.0926 43.9963 26.121 44.2291 26.167 44.4583C26.198 44.6132 26.2422 44.7637 26.2794 44.9168C26.3307 45.1283 26.3785 45.3408 26.4422 45.5488C26.4856 45.6895 26.5396 45.8258 26.5883 45.9648C26.6626 46.1798 26.7361 46.3958 26.8237 46.6056C26.8724 46.7233 26.9299 46.8357 26.983 46.9508C27.0848 47.1756 27.1884 47.3995 27.3043 47.6172C27.3557 47.712 27.4132 47.8031 27.4672 47.8961C27.5982 48.1253 27.7309 48.3519 27.8779 48.5714C27.9319 48.6519 27.9912 48.7281 28.0469 48.8077C28.2027 49.029 28.362 49.2485 28.5346 49.4591C28.5983 49.537 28.6674 49.6096 28.7329 49.6857C28.8701 49.845 29.0011 50.0079 29.1471 50.1601H2.04266ZM37.4467 51.9303C35.4481 51.9303 33.5886 51.3232 32.0414 50.2867C31.7396 50.0849 31.4546 49.8654 31.1811 49.6353C31.0855 49.5547 30.9952 49.4671 30.9032 49.3821C30.7288 49.2237 30.5597 49.0608 30.3986 48.8918C30.2951 48.7829 30.1951 48.6723 30.0968 48.5599C29.9517 48.3935 29.8154 48.22 29.6826 48.0439C29.5976 47.9315 29.51 47.8217 29.4295 47.7058C29.2339 47.4216 29.0497 47.1296 28.8851 46.8269C28.8471 46.756 28.817 46.6808 28.7807 46.61C28.6515 46.3569 28.5311 46.1002 28.424 45.8364C28.378 45.7214 28.3381 45.6036 28.2956 45.4859C28.2124 45.254 28.1363 45.0195 28.0699 44.7814C28.0363 44.6584 28.0036 44.5362 27.9744 44.4114C27.9151 44.1592 27.869 43.9034 27.8301 43.6458C27.8133 43.5352 27.792 43.4263 27.7796 43.3139C27.738 42.9448 27.7106 42.5713 27.7106 42.1942C27.7106 36.8261 32.0786 32.4581 37.4467 32.4581C42.8148 32.4581 47.1828 36.8261 47.1828 42.1942C47.1828 47.5624 42.8148 51.9303 37.4467 51.9303Z"/>
            <path d="M6.4686 16.5263H17.9749C18.4635 16.5263 18.86 16.1307 18.86 15.6412C18.86 15.1517 18.4635 14.7561 17.9749 14.7561H6.4686C5.98002 14.7561 5.5835 15.1517 5.5835 15.6412C5.5835 16.1307 5.98002 16.5263 6.4686 16.5263Z"/>
            <path d="M17.9749 41.309H6.4686C5.98002 41.309 5.5835 41.7047 5.5835 42.1941C5.5835 42.6836 5.98002 43.0792 6.4686 43.0792H17.9749C18.4635 43.0792 18.86 42.6836 18.86 42.1941C18.86 41.7047 18.4635 41.309 17.9749 41.309Z"/>
            <path d="M6.4686 21.8369H32.1365C32.6251 21.8369 33.0216 21.4412 33.0216 20.9518C33.0216 20.4623 32.6251 20.0667 32.1365 20.0667H6.4686C5.98002 20.0667 5.5835 20.4623 5.5835 20.9518C5.5835 21.4412 5.98002 21.8369 6.4686 21.8369Z"/>
            <path d="M6.4686 32.4581H27.711C28.1996 32.4581 28.5961 32.0625 28.5961 31.573C28.5961 31.0836 28.1996 30.6879 27.711 30.6879H6.4686C5.98002 30.6879 5.5835 31.0836 5.5835 31.573C5.5835 32.0625 5.98002 32.4581 6.4686 32.4581Z"/>
            <path d="M23.2855 35.9985H6.4686C5.98002 35.9985 5.5835 36.3941 5.5835 36.8836C5.5835 37.373 5.98002 37.7687 6.4686 37.7687H23.2855C23.7741 37.7687 24.1706 37.373 24.1706 36.8836C24.1706 36.3941 23.7741 35.9985 23.2855 35.9985Z"/>
            <path d="M6.4686 27.1475H18.86C19.3486 27.1475 19.7451 26.7519 19.7451 26.2624C19.7451 25.773 19.3486 25.3773 18.86 25.3773H6.4686C5.98002 25.3773 5.5835 25.773 5.5835 26.2624C5.5835 26.7519 5.98002 27.1475 6.4686 27.1475Z"/>
            <path d="M32.1365 25.3773H25.9408C25.4522 25.3773 25.0557 25.773 25.0557 26.2624C25.0557 26.7519 25.4522 27.1475 25.9408 27.1475H32.1365C32.625 27.1475 33.0216 26.7519 33.0216 26.2624C33.0216 25.773 32.625 25.3773 32.1365 25.3773Z" />
        </g>
    </symbol>
    <symbol id="medal3" viewBox="0 0 49 54">
        <g>
            <path d="M43.9828 37.9011L35.7183 35.8393C35.6874 35.7928 35.6535 35.7479 35.6131 35.7075L33.1514 33.2448V30.8873C33.3563 30.6791 33.5569 30.4629 33.7521 30.2375C36.049 27.585 37.43 24.0114 37.6409 20.1751C37.6493 20.0212 37.6571 19.8676 37.6648 19.7141C37.6904 19.2065 37.7146 18.7271 37.7631 18.2434L38.5781 10.0923C38.83 7.57273 38.0001 5.05117 36.3012 3.17375C34.6022 1.29622 32.1754 0.219482 29.6434 0.219482H20.5079C17.9758 0.219482 15.5492 1.29622 13.8501 3.17364C12.151 5.05106 11.3212 7.57285 11.573 10.0923L12.3875 18.2378C12.4361 18.7234 12.4606 19.2068 12.4865 19.7187C12.4941 19.8708 12.5018 20.023 12.5102 20.1751C12.721 24.0114 14.1021 27.585 16.399 30.2375C16.594 30.4629 16.7947 30.6789 16.9996 30.8873V33.2448L14.5378 35.7074C14.4984 35.7468 14.4652 35.7903 14.4349 35.8355L6.16803 37.9012C2.66473 38.777 0.735352 40.9272 0.735352 43.9556V49.8601C0.735352 51.3237 1.92605 52.5144 3.38963 52.5144H46.7616C48.2252 52.5144 49.4159 51.3237 49.4159 49.8601V43.9555C49.4159 40.9272 47.4865 38.777 43.9828 37.9011ZM24.172 47.0929H25.9792C26.0422 47.0929 26.1045 47.0898 26.1665 47.0855L26.8022 50.8202H23.3491L23.9848 47.0855C24.0468 47.0898 24.109 47.0929 24.172 47.0929ZM26.9393 44.4386C26.9393 44.968 26.5086 45.3987 25.9792 45.3987H24.172C23.6427 45.3987 23.212 44.968 23.212 44.4386V43.0848L25.0756 41.8424L26.9393 43.0848V44.4386ZM18.6941 32.3398C20.6103 33.7097 22.8022 34.4427 25.0756 34.4427C27.349 34.4427 29.5409 33.7097 31.4572 32.3398V33.2448L25.0756 39.6263L18.6941 33.2448V32.3398ZM28.2611 41.9298C28.2602 41.9292 28.2593 41.9287 28.2584 41.928L26.4053 40.6926L32.3042 34.7936L33.9647 36.4548C33.4044 37.4658 32.0885 39.8341 30.2305 43.1752C30.227 43.1815 30.2196 43.1946 30.1988 43.1997C30.1749 43.2056 30.1577 43.1941 30.1521 43.1904L28.2611 41.9298ZM15.1063 4.31046C16.4847 2.78724 18.4536 1.9137 20.5079 1.9137H29.6434C31.6978 1.9137 33.6666 2.78724 35.0451 4.31046C36.4235 5.83356 37.0968 7.8795 36.8924 9.92352L36.3765 15.0816C35.2319 12.3539 33.9655 10.6067 33.891 10.505C33.621 10.1367 33.1074 10.0488 32.7303 10.3063C30.5041 11.8261 20.5892 12.0196 16.9559 11.9661C16.7108 11.9614 16.476 12.0651 16.3125 12.2479C15.2743 13.4066 14.4576 14.7095 13.8518 15.8519L13.259 9.92363C13.0545 7.87961 13.7279 5.83367 15.1063 4.31046ZM14.202 20.0822C14.1938 19.9324 14.1862 19.7827 14.1786 19.633C14.1734 19.5294 14.168 19.4246 14.1625 19.3197C14.345 18.8015 15.4039 15.9453 17.3256 13.6647C19.6696 13.6852 29.2434 13.6699 32.9255 12.1083C33.6515 13.2536 35.1822 15.9346 35.9897 19.3002C35.9838 19.4102 35.9783 19.52 35.9727 19.6286C35.9651 19.7796 35.9575 19.9307 35.9491 20.0822C35.5588 27.1848 30.7825 32.7485 25.0756 32.7485C19.3687 32.7485 14.5925 27.1848 14.202 20.0822ZM17.8471 34.7936L23.746 40.6926L21.8925 41.9282C21.8919 41.9287 21.8911 41.9292 21.8904 41.9297L19.9992 43.1905C19.9937 43.1944 19.9765 43.2057 19.9524 43.1998C19.9316 43.1948 19.9243 43.1816 19.9209 43.1754C18.0629 39.8342 16.747 37.4659 16.1866 36.4549L17.8471 34.7936ZM2.42957 49.8601V43.9556C2.42957 41.7171 3.82561 40.2331 6.57883 39.5448L14.821 37.4855C15.3094 38.3674 16.3221 40.1897 18.4403 43.9988C18.6763 44.4232 19.0823 44.7323 19.5537 44.8463C19.6888 44.8791 19.8263 44.8951 19.9634 44.8951C20.3072 44.8951 20.6482 44.7939 20.939 44.6001L21.5179 44.2142V44.4385C21.5179 45.2135 21.8519 45.9119 22.3834 46.3977L21.6306 50.8202H10.5618V46.2458C10.5618 45.7779 10.1825 45.3987 9.71471 45.3987C9.24688 45.3987 8.8676 45.7779 8.8676 46.2458V50.8202H3.38963C2.86024 50.8202 2.42957 50.3895 2.42957 49.8601ZM47.7217 49.8601C47.7217 50.3895 47.291 50.8202 46.7616 50.8202H41.2837V46.2458C41.2837 45.7779 40.9044 45.3987 40.4365 45.3987C39.9687 45.3987 39.5894 45.7779 39.5894 46.2458V50.8202H28.5207L27.7679 46.3978C28.2994 45.9121 28.6334 45.2136 28.6334 44.4386V44.2143L29.2122 44.6002C29.5031 44.7942 29.8441 44.8952 30.1879 44.8952C30.325 44.8952 30.4626 44.8791 30.5975 44.8465C31.069 44.7323 31.4749 44.4234 31.711 43.9988C33.827 40.1937 34.8398 38.3713 35.3287 37.4882L43.5722 39.5448C46.3257 40.2331 47.7217 41.7171 47.7217 43.9555V49.8601Z"/>
        </g>
    </symbol>
    <symbol id="slacklogo"  viewBox="0 0 136 35">
        <g>
            <path fill-rule="evenodd" clip-rule="evenodd" d="M43.8174 27.3735L45.4976 23.4691C47.3124 24.8262 49.7304 25.5317 52.1161 25.5317C53.8771 25.5317 54.9918 24.8532 54.9918 23.8246C54.9649 20.9488 44.4421 23.1999 44.3613 15.989C44.3344 12.327 47.5871 9.50513 52.1969 9.50513C54.938 9.50513 57.6737 10.1837 59.6286 11.7292L58.056 15.7144C56.2681 14.5727 54.044 13.7595 51.9276 13.7595C50.4897 13.7595 49.5419 14.438 49.5419 15.3051C49.5689 18.127 60.1725 16.5814 60.2802 23.4691C60.2802 27.2119 57.1082 29.8453 52.5523 29.8453C49.2134 29.8399 46.1492 29.0537 43.8174 27.3735ZM108.338 22.0582C107.498 23.523 105.926 24.5247 104.106 24.5247C101.418 24.5247 99.2534 22.3544 99.2534 19.6725C99.2534 16.9907 101.424 14.8204 104.106 14.8204C105.92 14.8204 107.498 15.8221 108.338 17.2869L112.975 14.7127C111.241 11.6215 107.902 9.50513 104.106 9.50513C98.4887 9.50513 93.9327 14.0611 93.9327 19.6779C93.9327 25.2948 98.4887 29.8507 104.106 29.8507C107.929 29.8507 111.241 27.7612 112.975 24.6431L108.338 22.0582ZM62.612 1.06641H68.4173V29.463H62.612V1.06641ZM115.253 1.06641V29.463H121.058V20.9435L127.946 29.463H135.378L126.616 19.344L134.726 9.90364H127.618L121.053 17.7392V1.06641H115.253Z" fill="black"/>
            <path d="M85.6667 22.1123C84.8265 23.4963 83.0925 24.5249 81.1376 24.5249C78.4504 24.5249 76.2855 22.3546 76.2855 19.6728C76.2855 16.9909 78.4558 14.8207 81.1376 14.8207C83.0925 14.8207 84.8265 15.9031 85.6667 17.314V22.1123ZM85.6667 9.90928V12.2142C84.7188 10.6148 82.3601 9.5 79.8882 9.5C74.7884 9.5 70.7764 14.0021 70.7764 19.6459C70.7764 25.2896 74.7884 29.8456 79.8882 29.8456C82.3547 29.8456 84.7135 28.7362 85.6667 27.1314V29.4363H91.472V9.90928H85.6667Z" fill="black"/>
            <path fill-rule="evenodd" clip-rule="evenodd" d="M7.93536 22.0846C7.93536 24.0664 6.33594 25.6658 4.35416 25.6658C2.37238 25.6658 0.772949 24.061 0.772949 22.0846C0.772949 20.1082 2.37238 18.5034 4.35416 18.5034H7.93536V22.0846ZM9.72327 22.0846C9.72327 20.1028 11.3227 18.5034 13.3045 18.5034C15.2863 18.5034 16.8857 20.1028 16.8857 22.0846V31.0349C16.8857 33.0167 15.2863 34.6162 13.3045 34.6162C11.3227 34.6162 9.72327 33.0167 9.72327 31.0349V22.0846Z" fill="#E01E5A"/>
            <path fill-rule="evenodd" clip-rule="evenodd" d="M13.3046 7.71173C11.3228 7.71173 9.72335 6.11231 9.72335 4.13052C9.72335 2.14874 11.3228 0.549316 13.3046 0.549316C15.2863 0.549316 16.8858 2.14874 16.8858 4.13052V7.71173H13.3046ZM13.3046 9.52657C15.2863 9.52657 16.8858 11.126 16.8858 13.1078C16.8858 15.0896 15.2863 16.689 13.3046 16.689H4.3273C2.34552 16.689 0.746094 15.0842 0.746094 13.1078C0.746094 11.1314 2.34552 9.52657 4.3273 9.52657H13.3046Z" fill="#36C5F0"/>
            <path fill-rule="evenodd" clip-rule="evenodd" d="M27.651 13.1078C27.651 11.126 29.2504 9.52657 31.2322 9.52657C33.214 9.52657 34.8134 11.126 34.8134 13.1078C34.8134 15.0896 33.214 16.689 31.2322 16.689H27.651V13.1078ZM25.8631 13.1078C25.8631 15.0896 24.2637 16.689 22.2819 16.689C20.3001 16.689 18.7007 15.0896 18.7007 13.1078V4.13052C18.7007 2.14874 20.3001 0.549316 22.2819 0.549316C24.2637 0.549316 25.8631 2.14874 25.8631 4.13052V13.1078Z" fill="#2EB67D"/>
            <path fill-rule="evenodd" clip-rule="evenodd" d="M22.2819 27.4537C24.2637 27.4537 25.8631 29.0532 25.8631 31.0349C25.8631 33.0167 24.2637 34.6162 22.2819 34.6162C20.3001 34.6162 18.7007 33.0167 18.7007 31.0349V27.4537H22.2819ZM22.2819 25.6658C20.3001 25.6658 18.7007 24.0664 18.7007 22.0846C18.7007 20.1028 20.3001 18.5034 22.2819 18.5034H31.2591C33.2409 18.5034 34.8404 20.1028 34.8404 22.0846C34.8404 24.0664 33.2409 25.6658 31.2591 25.6658H22.2819Z" fill="#ECB22E"/>
        </g>
    </symbol>
    <symbol id="dropboxlogo"  viewBox="0 0 181 37">
        <g>
            <path d="M21.3064 7.52837L10.8629 14.1944L21.3064 20.8605L10.8629 27.5265L0.419434 20.8049L10.8629 14.1389L0.419434 7.52837L10.8629 0.862305L21.3064 7.52837ZM10.8074 29.6375L21.2509 22.9714L31.6944 29.6375L21.2509 36.3035L10.8074 29.6375ZM21.3064 20.8049L31.7499 14.1389L21.3064 7.52837L31.6944 0.862305L42.1379 7.52837L31.6944 14.1944L42.1379 20.8605L31.6944 27.5265L21.3064 20.8049Z" fill="#0061FF"/>
            <path d="M50.3037 7.5281H58.7474C64.1358 7.5281 68.5798 10.6389 68.5798 17.7494V19.2493C68.5798 26.4153 64.4135 29.6372 58.914 29.6372H50.3037V7.5281ZM55.0255 11.5277V25.582H58.6363C61.6916 25.582 63.7469 23.5822 63.7469 19.1382V17.9716C63.7469 13.5276 61.5805 11.5277 58.4696 11.5277H55.0255ZM71.0796 11.7499H74.857L75.4681 15.9162C76.1903 13.0832 78.0234 11.5833 81.3564 11.5833H82.523V16.3606H80.5787C76.7458 16.3606 75.8014 17.6938 75.8014 21.4713V29.6928H71.1352V11.7499H71.0796ZM83.4674 21.0824V20.5825C83.4674 14.583 87.3004 11.3055 92.5221 11.3055C97.8549 11.3055 101.577 14.583 101.577 20.5825V21.0824C101.577 26.9708 97.966 30.1372 92.5221 30.1372C86.7448 30.0816 83.4674 26.9708 83.4674 21.0824ZM96.7995 21.0269V20.5825C96.7995 17.2494 95.133 15.2496 92.4665 15.2496C89.8557 15.2496 88.1336 17.0828 88.1336 20.5825V21.0269C88.1336 24.2488 89.8001 26.082 92.4665 26.082C95.133 26.0264 96.7995 24.2488 96.7995 21.0269ZM104.021 11.7499H107.91L108.354 15.1385C109.298 12.861 111.298 11.3055 114.242 11.3055C118.797 11.3055 121.797 14.583 121.797 20.638V21.138C121.797 27.0263 118.464 30.1372 114.242 30.1372C111.409 30.1372 109.465 28.8595 108.521 26.8041V35.8589H103.965L104.021 11.7499ZM117.075 21.0269V20.638C117.075 17.0828 115.242 15.3052 112.798 15.3052C110.187 15.3052 108.465 17.305 108.465 20.638V20.9713C108.465 24.1377 110.132 26.1375 112.742 26.1375C115.409 26.082 117.075 24.3599 117.075 21.0269ZM128.685 26.3597L128.297 29.6372H124.297V5.75049H128.852V14.9163C129.852 12.5832 131.852 11.3055 134.685 11.3055C138.962 11.3611 142.129 14.3053 142.129 20.2492V20.8047C142.129 26.7486 139.129 30.1372 134.574 30.1372C131.574 30.0816 129.63 28.6928 128.685 26.3597ZM137.351 20.8047V20.3603C137.351 17.0828 135.574 15.2496 133.074 15.2496C130.519 15.2496 128.741 17.305 128.741 20.4158V20.8047C128.741 24.1377 130.463 26.082 133.018 26.082C135.74 26.082 137.351 24.3599 137.351 20.8047ZM144.129 21.0824V20.5825C144.129 14.583 147.962 11.3055 153.183 11.3055C158.516 11.3055 162.238 14.583 162.238 20.5825V21.0824C162.238 26.9708 158.572 30.1372 153.183 30.1372C147.406 30.0816 144.129 26.9708 144.129 21.0824ZM157.516 21.0269V20.5825C157.516 17.2494 155.85 15.2496 153.183 15.2496C150.572 15.2496 148.85 17.0828 148.85 20.5825V21.0269C148.85 24.2488 150.517 26.082 153.183 26.082C155.85 26.0264 157.516 24.2488 157.516 21.0269ZM168.349 20.3603L162.071 11.7499H167.46L171.071 17.1383L174.737 11.7499H180.07L173.681 20.3047L180.403 29.6372H175.126L171.015 23.6933L167.015 29.6372H161.516L168.349 20.3603Z" fill="black"/>
        </g>
    </symbol>
    <symbol id="googlelogo"  viewBox="0 0 129 43">
        <g>
            <path d="M16.2234 0.67334H17.3626C21.3179 0.759323 25.2086 2.35001 28.003 5.16596C26.9712 6.21925 25.918 7.22955 24.9076 8.28285C23.3385 6.86413 21.4468 5.76784 19.3832 5.38092C16.3308 4.73604 13.042 5.31643 10.484 7.05759C7.68953 8.88473 5.7979 11.9801 5.38948 15.2905C4.93807 18.5578 5.86239 21.9972 7.99047 24.5337C10.0326 27.0057 13.1495 28.5534 16.3738 28.6608C19.3832 28.8328 22.5216 27.9085 24.7142 25.8019C26.4338 24.3187 27.2292 22.0616 27.4871 19.8691C23.9188 19.8691 20.3505 19.8906 16.7822 19.8691V15.4409H31.8078C32.5816 20.1915 31.4639 25.544 27.8526 28.9403C25.445 31.3478 22.1132 32.7665 18.7169 33.046C15.428 33.3684 12.0317 32.745 9.10825 31.1544C5.60444 29.2842 2.80999 26.1243 1.43426 22.4056C0.144509 18.9877 0.123013 15.1185 1.32678 11.6792C2.42306 8.5408 4.52965 5.76784 7.23812 3.83322C9.83911 1.9201 12.999 0.866802 16.2234 0.67334Z" fill="#3780FF"/>
            <path d="M102.421 1.7915H107.021V32.4875C105.495 32.4875 103.947 32.509 102.421 32.466C102.442 22.2555 102.421 12.0235 102.421 1.7915Z" fill="#38B137"/>
            <path d="M42.0398 12.4319C44.8772 11.8945 47.9511 12.4964 50.2942 14.1945C52.4222 15.6993 53.9055 18.0638 54.3569 20.6433C54.9373 23.6312 54.2064 26.8986 52.2718 29.2631C50.1867 31.9071 46.7689 33.3258 43.437 33.1108C40.3846 32.9389 37.4182 31.4127 35.6125 28.9192C33.5704 26.1677 33.076 22.3844 34.1938 19.1601C35.3116 15.6993 38.4715 13.0553 42.0398 12.4319ZM42.6847 16.5161C41.5239 16.817 40.4491 17.4834 39.6752 18.4292C37.5902 20.9227 37.7191 24.9854 40.0192 27.307C41.3304 28.6397 43.308 29.2631 45.1352 28.8977C46.8333 28.5967 48.3166 27.4574 49.1334 25.9527C50.5521 23.3947 50.1437 19.8694 47.9726 17.8703C46.5754 16.5806 44.5333 16.0432 42.6847 16.5161Z" fill="#FA3913"/>
            <path d="M64.825 12.432C68.0709 11.8086 71.6177 12.7115 74.0467 14.99C78.0019 18.5368 78.4319 25.179 75.057 29.2632C73.0149 31.8427 69.7046 33.2614 66.4372 33.111C63.3203 33.025 60.2464 31.4773 58.3978 28.9193C56.3127 26.1033 55.8613 22.2341 57.0435 18.9452C58.2258 15.5919 61.3212 13.0339 64.825 12.432ZM65.4699 16.5162C64.3091 16.8172 63.2343 17.4835 62.4605 18.4078C60.3969 20.8584 60.4829 24.8566 62.6969 27.1996C64.0082 28.5968 66.0503 29.2847 67.9419 28.8978C69.6186 28.5753 71.1233 27.4576 71.9401 25.9529C73.3374 23.3734 72.9289 19.8481 70.7364 17.8489C69.3391 16.5592 67.297 16.0433 65.4699 16.5162Z" fill="#FCBD06"/>
            <path d="M84.1497 13.6785C86.6217 12.1308 89.9105 11.7008 92.576 13.0336C93.4144 13.399 94.1022 14.0224 94.7686 14.6458C94.7901 14.0654 94.7686 13.4635 94.7901 12.8616C96.2303 12.8831 97.6705 12.8616 99.1322 12.8831V31.8424C99.1107 34.7013 98.3799 37.7322 96.3163 39.8173C94.0592 42.1174 90.5984 42.8267 87.4815 42.3538C84.1497 41.8594 81.2477 39.4304 79.958 36.3565C81.2477 35.7331 82.602 35.2387 83.9347 34.6583C84.6871 36.421 86.2133 37.9257 88.1264 38.2696C90.0395 38.6136 92.2536 38.1407 93.5003 36.55C94.8331 34.9163 94.8331 32.6807 94.7686 30.6816C93.7798 31.6489 92.6405 32.5088 91.2648 32.8312C88.2769 33.6695 84.988 32.6377 82.688 30.6171C80.3664 28.5965 78.9907 25.4796 79.1197 22.3843C79.1842 18.8804 81.1618 15.5056 84.1497 13.6785ZM88.5993 16.4299C87.2881 16.6449 86.0628 17.3757 85.2245 18.386C83.2039 20.7936 83.2039 24.6413 85.246 27.0058C86.4067 28.4031 88.2769 29.1769 90.0825 28.9835C91.7807 28.8115 93.3499 27.7367 94.1882 26.2535C95.6069 23.7385 95.3705 20.3207 93.4574 18.1281C92.2751 16.7739 90.3835 16.1075 88.5993 16.4299Z" fill="#3780FF"/>
            <path d="M112.546 14.7745C115.125 12.367 119.102 11.5501 122.412 12.8184C125.551 14.0006 127.55 16.9886 128.56 20.0625C123.896 21.9971 119.253 23.9102 114.588 25.8448C115.233 27.0701 116.222 28.1879 117.554 28.6393C119.424 29.3056 121.66 29.0692 123.229 27.8224C123.853 27.3495 124.347 26.7261 124.82 26.1243C126.002 26.9196 127.184 27.6935 128.367 28.4888C126.69 31.0038 123.874 32.7665 120.843 33.0459C117.49 33.4543 113.922 32.1646 111.75 29.5421C108.182 25.4149 108.526 18.4933 112.546 14.7745ZM114.846 18.7512C114.115 19.8045 113.814 21.0943 113.836 22.3625C116.952 21.0728 120.069 19.783 123.186 18.4718C122.67 17.268 121.424 16.5371 120.155 16.3437C118.113 15.9783 115.985 17.0745 114.846 18.7512Z" fill="#FA3913"/>
        </g>
    </symbol>
    <symbol id="teslalogo"  viewBox="0 0 62 79">
        <g>
            <path d="M52.4302 74.0362V78.8063H53.9599V75.6303H59.5275V78.8063H61.0561V74.0444L52.4302 74.0362ZM53.7895 72.4931H59.6716C60.4886 72.3307 61.0962 71.6097 61.2675 70.9122H52.1938C52.3634 71.6099 52.9799 72.3307 53.7895 72.4931ZM47.7972 78.8093C48.5685 78.4824 48.9834 77.9168 49.1423 77.255H42.2813L42.2856 70.9162L40.7476 70.9205V78.8093H47.7972ZM29.3103 72.4718H34.7427C35.5617 72.2339 36.2494 71.61 36.417 70.9183H27.7876V75.5803H34.8505V77.2162L29.3103 77.2206C28.4422 77.4627 27.7059 78.0457 27.3387 78.8156L27.7876 78.8074H36.368V74.0303H29.3103V72.4718ZM15.8997 72.4868H21.7798C22.5979 72.3238 23.206 71.6034 23.3764 70.9053H14.3031C14.4725 71.6034 15.0894 72.3238 15.8997 72.4868ZM15.8997 75.6046H21.7798C22.5979 75.4433 23.206 74.7223 23.3764 74.0237H14.3031C14.4725 74.7225 15.0894 75.4433 15.8997 75.6046ZM15.8997 78.8085H21.7798C22.5979 78.6458 23.206 77.9251 23.3764 77.2273H14.3031C14.4725 77.9253 15.0894 78.6458 15.8997 78.8085ZM0.602051 70.9244C0.778819 71.6139 1.37574 72.3185 2.19471 72.4951H4.6699L4.79616 72.5449V78.7908H6.34179V72.5449L6.48221 72.4951H8.95957C9.78769 72.2818 10.3718 71.6139 10.5455 70.9244V70.9092H0.602051V70.9244Z" fill="#E82127"/>
            <path d="M30.9379 55.3182L38.6609 11.8839C46.0222 11.8839 48.3442 12.6911 48.6794 15.986C48.6794 15.986 53.6176 14.1447 56.1082 10.4051C46.389 5.90146 36.6235 5.69835 36.6235 5.69835L30.9251 12.6389L30.9379 12.638L25.2395 5.69727C25.2395 5.69727 15.4738 5.90059 5.75586 10.4043C8.24433 14.1438 13.1845 15.9851 13.1845 15.9851C13.5217 12.6901 15.8408 11.8828 23.1527 11.8776L30.9379 55.3182Z" fill="#E82127"/>
            <path d="M30.935 3.69389C38.7916 3.63381 47.7843 4.90928 56.9902 8.92161C58.2206 6.70701 58.5369 5.72825 58.5369 5.72825C48.4736 1.74683 39.0493 0.384276 30.9339 0.350098C22.8189 0.384276 13.3951 1.74705 3.33301 5.72825C3.33301 5.72825 3.78189 6.93384 4.87864 8.92161C14.0828 4.90928 23.0771 3.63381 30.9339 3.69389H30.935Z" fill="#E82127"/>
        </g>
    </symbol>
</svg>