<svg width="42" height="33" viewBox="0 0 42 33" fill="none" xmlns="http://www.w3.org/2000/svg">
<path d="M33.7516 16.8946C38.3307 16.8946 41.4166 20.0796 41.4166 24.7987C41.4166 29.0454 37.8699 32.5833 33.0662 32.5833C27.8045 32.5833 23.9166 28.3367 23.9166 21.85C23.9166 7.10625 34.6674 1.20875 41.4166 0.5V6.98667C36.8403 7.81208 31.6953 12.4117 31.4649 17.4867C31.6953 17.37 32.6082 16.8946 33.7516 16.8946ZM10.4212 16.8946C14.9945 16.8946 18.0833 20.0796 18.0833 24.7987C18.0833 29.0454 14.5366 32.5833 9.73283 32.5833C4.47117 32.5833 0.583252 28.3367 0.583252 21.85C0.583252 7.10625 11.3341 1.20875 18.0833 0.5V6.98667C13.507 7.81208 8.362 12.4117 8.13158 17.4867C8.362 17.37 9.27492 16.8946 10.4212 16.8946Z" fill="black"/>
</svg>
