<svg width="175" height="160" viewBox="0 0 175 160" fill="none" xmlns="http://www.w3.org/2000/svg">
<rect x="5.25757" y="2.25293" width="7.51073" height="7.51073" fill="#FCC028"/>
<rect x="61.5881" y="2.25293" width="7.51073" height="7.51073" fill="#FCC028"/>
<rect x="117.918" y="2.25293" width="7.51073" height="7.51073" fill="#FCC028"/>
<rect x="16.5236" y="2.25293" width="7.51073" height="7.51073" fill="#FCC028"/>
<rect x="72.8541" y="2.25293" width="7.51073" height="7.51073" fill="#FCC028"/>
<rect x="129.185" y="2.25293" width="7.51073" height="7.51073" fill="#FCC028"/>
<rect x="27.7896" y="2.25293" width="7.51073" height="7.51073" fill="#FCC028"/>
<rect x="84.1201" y="2.25293" width="7.51073" height="7.51073" fill="#FCC028"/>
<rect x="140.451" y="2.25293" width="7.51073" height="7.51073" fill="#FCC028"/>
<rect x="39.0558" y="2.25293" width="7.51073" height="7.51073" fill="#FCC028"/>
<rect x="95.3864" y="2.25293" width="7.51073" height="7.51073" fill="#FCC028"/>
<rect x="151.717" y="2.25293" width="7.51073" height="7.51073" fill="#FCC028"/>
<rect x="50.3219" y="2.25293" width="7.51073" height="7.51073" fill="#FCC028"/>
<rect x="106.652" y="2.25293" width="7.51073" height="7.51073" fill="#FCC028"/>
<rect x="162.983" y="2.25293" width="7.51073" height="7.51073" fill="#FCC028"/>
<rect x="5.25757" y="12.0176" width="7.51073" height="7.51073" fill="#FCC028"/>
<rect x="61.5881" y="12.0176" width="7.51073" height="7.51073" fill="#FCC028"/>
<rect x="117.918" y="12.0176" width="7.51073" height="7.51073" fill="#FCC028"/>
<rect x="16.5236" y="12.0176" width="7.51073" height="7.51073" fill="#FCC028"/>
<rect x="72.8541" y="12.0176" width="7.51073" height="7.51073" fill="#FCC028"/>
<rect x="129.185" y="12.0176" width="7.51073" height="7.51073" fill="#FCC028"/>
<rect x="27.7896" y="12.0176" width="7.51073" height="7.51073" fill="#FCC028"/>
<rect x="84.1201" y="12.0176" width="7.51073" height="7.51073" fill="#FCC028"/>
<rect x="140.451" y="12.0176" width="7.51073" height="7.51073" fill="#FCC028"/>
<rect x="39.0558" y="12.0176" width="7.51073" height="7.51073" fill="#FCC028"/>
<rect x="95.3864" y="12.0176" width="7.51073" height="7.51073" fill="#FCC028"/>
<rect x="151.717" y="12.0176" width="7.51073" height="7.51073" fill="#FCC028"/>
<rect x="50.3219" y="12.0176" width="7.51073" height="7.51073" fill="#FCC028"/>
<rect x="106.652" y="12.0176" width="7.51073" height="7.51073" fill="#FCC028"/>
<rect x="162.983" y="12.0176" width="7.51073" height="7.51073" fill="#FCC028"/>
<rect x="5.25757" y="21.7812" width="7.51073" height="7.51073" fill="#FCC028"/>
<rect x="61.5881" y="21.7812" width="7.51073" height="7.51073" fill="#FCC028"/>
<rect x="117.918" y="21.7812" width="7.51073" height="7.51073" fill="#FCC028"/>
<rect x="16.5236" y="21.7812" width="7.51073" height="7.51073" fill="#FCC028"/>
<rect x="72.8541" y="21.7812" width="7.51073" height="7.51073" fill="#FCC028"/>
<rect x="129.185" y="21.7812" width="7.51073" height="7.51073" fill="#FCC028"/>
<rect x="27.7896" y="21.7812" width="7.51073" height="7.51073" fill="#FCC028"/>
<rect x="84.1201" y="21.7812" width="7.51073" height="7.51073" fill="#FCC028"/>
<rect x="140.451" y="21.7812" width="7.51073" height="7.51073" fill="#FCC028"/>
<rect x="39.0558" y="21.7812" width="7.51073" height="7.51073" fill="#FCC028"/>
<rect x="95.3864" y="21.7812" width="7.51073" height="7.51073" fill="#FCC028"/>
<rect x="151.717" y="21.7812" width="7.51073" height="7.51073" fill="#FCC028"/>
<rect x="50.3219" y="21.7812" width="7.51073" height="7.51073" fill="#FCC028"/>
<rect x="106.652" y="21.7812" width="7.51073" height="7.51073" fill="#FCC028"/>
<rect x="162.983" y="21.7812" width="7.51073" height="7.51073" fill="#FCC028"/>
<rect x="5.25757" y="31.5449" width="7.51073" height="7.51073" fill="#FCC028"/>
<rect x="61.5881" y="31.5449" width="7.51073" height="7.51073" fill="#FCC028"/>
<rect x="117.918" y="31.5449" width="7.51073" height="7.51073" fill="#FCC028"/>
<rect x="16.5236" y="31.5449" width="7.51073" height="7.51073" fill="#FCC028"/>
<rect x="72.8541" y="31.5449" width="7.51073" height="7.51073" fill="#FCC028"/>
<rect x="129.185" y="31.5449" width="7.51073" height="7.51073" fill="#FCC028"/>
<rect x="27.7896" y="31.5449" width="7.51073" height="7.51073" fill="#FCC028"/>
<rect x="84.1201" y="31.5449" width="7.51073" height="7.51073" fill="#FCC028"/>
<rect x="140.451" y="31.5449" width="7.51073" height="7.51073" fill="#FCC028"/>
<rect x="39.0558" y="31.5449" width="7.51073" height="7.51073" fill="#FCC028"/>
<rect x="95.3864" y="31.5449" width="7.51073" height="7.51073" fill="#FCC028"/>
<rect x="151.717" y="31.5449" width="7.51073" height="7.51073" fill="#FCC028"/>
<rect x="50.3219" y="31.5449" width="7.51073" height="7.51073" fill="#FCC028"/>
<rect x="106.652" y="31.5449" width="7.51073" height="7.51073" fill="#FCC028"/>
<rect x="162.983" y="31.5449" width="7.51073" height="7.51073" fill="#FCC028"/>
<rect x="5.25757" y="41.3091" width="7.51073" height="7.51073" fill="#FCC028"/>
<rect x="61.5881" y="41.3091" width="7.51073" height="7.51073" fill="#FCC028"/>
<rect x="117.918" y="41.3091" width="7.51073" height="7.51073" fill="#FCC028"/>
<rect x="16.5236" y="41.3091" width="7.51073" height="7.51073" fill="#FCC028"/>
<rect x="72.8541" y="41.3091" width="7.51073" height="7.51073" fill="#FCC028"/>
<rect x="129.185" y="41.3091" width="7.51073" height="7.51073" fill="#FCC028"/>
<rect x="27.7896" y="41.3091" width="7.51073" height="7.51073" fill="#FCC028"/>
<rect x="84.1201" y="41.3091" width="7.51073" height="7.51073" fill="#FCC028"/>
<rect x="140.451" y="41.3091" width="7.51073" height="7.51073" fill="#FCC028"/>
<rect x="39.0558" y="41.3091" width="7.51073" height="7.51073" fill="#FCC028"/>
<rect x="95.3864" y="41.3091" width="7.51073" height="7.51073" fill="#FCC028"/>
<rect x="151.717" y="41.3091" width="7.51073" height="7.51073" fill="#FCC028"/>
<rect x="50.3219" y="41.3091" width="7.51073" height="7.51073" fill="#FCC028"/>
<rect x="106.652" y="41.3091" width="7.51073" height="7.51073" fill="#FCC028"/>
<rect x="162.983" y="41.3091" width="7.51073" height="7.51073" fill="#FCC028"/>
<rect x="5.25757" y="51.0728" width="7.51073" height="7.51073" fill="#FCC028"/>
<rect x="61.5881" y="51.0728" width="7.51073" height="7.51073" fill="#FCC028"/>
<rect x="117.918" y="51.0728" width="7.51073" height="7.51073" fill="#FCC028"/>
<rect x="16.5236" y="51.0728" width="7.51073" height="7.51073" fill="#FCC028"/>
<rect x="72.8541" y="51.0728" width="7.51073" height="7.51073" fill="#FCC028"/>
<rect x="129.185" y="51.0728" width="7.51073" height="7.51073" fill="#FCC028"/>
<rect x="27.7896" y="51.0728" width="7.51073" height="7.51073" fill="#FCC028"/>
<rect x="84.1201" y="51.0728" width="7.51073" height="7.51073" fill="#FCC028"/>
<rect x="140.451" y="51.0728" width="7.51073" height="7.51073" fill="#FCC028"/>
<rect x="39.0558" y="51.0728" width="7.51073" height="7.51073" fill="#FCC028"/>
<rect x="95.3864" y="51.0728" width="7.51073" height="7.51073" fill="#FCC028"/>
<rect x="151.717" y="51.0728" width="7.51073" height="7.51073" fill="#FCC028"/>
<rect x="50.3219" y="51.0728" width="7.51073" height="7.51073" fill="#FCC028"/>
<rect x="106.652" y="51.0728" width="7.51073" height="7.51073" fill="#FCC028"/>
<rect x="162.983" y="51.0728" width="7.51073" height="7.51073" fill="#FCC028"/>
<rect x="5.25757" y="60.8369" width="7.51073" height="7.51073" fill="#FCC028"/>
<rect x="61.5881" y="60.8369" width="7.51073" height="7.51073" fill="#FCC028"/>
<rect x="117.918" y="60.8369" width="7.51073" height="7.51073" fill="#FCC028"/>
<rect x="16.5236" y="60.8369" width="7.51073" height="7.51073" fill="#FCC028"/>
<rect x="72.8541" y="60.8369" width="7.51073" height="7.51073" fill="#FCC028"/>
<rect x="129.185" y="60.8369" width="7.51073" height="7.51073" fill="#FCC028"/>
<rect x="27.7896" y="60.8369" width="7.51073" height="7.51073" fill="#FCC028"/>
<rect x="84.1201" y="60.8369" width="7.51073" height="7.51073" fill="#FCC028"/>
<rect x="140.451" y="60.8369" width="7.51073" height="7.51073" fill="#FCC028"/>
<rect x="39.0558" y="60.8369" width="7.51073" height="7.51073" fill="#FCC028"/>
<rect x="95.3864" y="60.8369" width="7.51073" height="7.51073" fill="#FCC028"/>
<rect x="151.717" y="60.8369" width="7.51073" height="7.51073" fill="#FCC028"/>
<rect x="50.3219" y="60.8369" width="7.51073" height="7.51073" fill="#FCC028"/>
<rect x="106.652" y="60.8369" width="7.51073" height="7.51073" fill="#FCC028"/>
<rect x="162.983" y="60.8369" width="7.51073" height="7.51073" fill="#FCC028"/>
<rect x="5.25757" y="70.6011" width="7.51073" height="7.51073" fill="#FCC028"/>
<rect x="61.5881" y="70.6011" width="7.51073" height="7.51073" fill="#FCC028"/>
<rect x="117.918" y="70.6011" width="7.51073" height="7.51073" fill="#FCC028"/>
<rect x="16.5236" y="70.6011" width="7.51073" height="7.51073" fill="#FCC028"/>
<rect x="72.8541" y="70.6011" width="7.51073" height="7.51073" fill="#FCC028"/>
<rect x="129.185" y="70.6011" width="7.51073" height="7.51073" fill="#FCC028"/>
<rect x="27.7896" y="70.6011" width="7.51073" height="7.51073" fill="#FCC028"/>
<rect x="84.1201" y="70.6011" width="7.51073" height="7.51073" fill="#FCC028"/>
<rect x="140.451" y="70.6011" width="7.51073" height="7.51073" fill="#FCC028"/>
<rect x="39.0558" y="70.6011" width="7.51073" height="7.51073" fill="#FCC028"/>
<rect x="95.3864" y="70.6011" width="7.51073" height="7.51073" fill="#FCC028"/>
<rect x="151.717" y="70.6011" width="7.51073" height="7.51073" fill="#FCC028"/>
<rect x="50.3219" y="70.6011" width="7.51073" height="7.51073" fill="#FCC028"/>
<rect x="106.652" y="70.6011" width="7.51073" height="7.51073" fill="#FCC028"/>
<rect x="162.983" y="70.6011" width="7.51073" height="7.51073" fill="#FCC028"/>
<rect x="5.25757" y="80.3647" width="7.51073" height="7.51073" fill="#FCC028"/>
<rect x="61.5881" y="80.3647" width="7.51073" height="7.51073" fill="#FCC028"/>
<rect x="117.918" y="80.3647" width="7.51073" height="7.51073" fill="#FCC028"/>
<rect x="16.5236" y="80.3647" width="7.51073" height="7.51073" fill="#FCC028"/>
<rect x="72.8541" y="80.3647" width="7.51073" height="7.51073" fill="#FCC028"/>
<rect x="129.185" y="80.3647" width="7.51073" height="7.51073" fill="#FCC028"/>
<rect x="27.7896" y="80.3647" width="7.51073" height="7.51073" fill="#FCC028"/>
<rect x="84.1201" y="80.3647" width="7.51073" height="7.51073" fill="#FCC028"/>
<rect x="140.451" y="80.3647" width="7.51073" height="7.51073" fill="#FCC028"/>
<rect x="39.0558" y="80.3647" width="7.51073" height="7.51073" fill="#FCC028"/>
<rect x="95.3864" y="80.3647" width="7.51073" height="7.51073" fill="#FCC028"/>
<rect x="151.717" y="80.3647" width="7.51073" height="7.51073" fill="#FCC028"/>
<rect x="50.3219" y="80.3647" width="7.51073" height="7.51073" fill="#FCC028"/>
<rect x="106.652" y="80.3647" width="7.51073" height="7.51073" fill="#FCC028"/>
<rect x="162.983" y="80.3647" width="7.51073" height="7.51073" fill="#FCC028"/>
<rect x="5.25757" y="90.1284" width="7.51073" height="7.51073" fill="#FCC028"/>
<rect x="61.5881" y="90.1284" width="7.51073" height="7.51073" fill="#FCC028"/>
<rect x="117.918" y="90.1284" width="7.51073" height="7.51073" fill="#FCC028"/>
<rect x="16.5236" y="90.1284" width="7.51073" height="7.51073" fill="#FCC028"/>
<rect x="72.8541" y="90.1284" width="7.51073" height="7.51073" fill="#FCC028"/>
<rect x="129.185" y="90.1284" width="7.51073" height="7.51073" fill="#FCC028"/>
<rect x="27.7896" y="90.1284" width="7.51073" height="7.51073" fill="#FCC028"/>
<rect x="84.1201" y="90.1284" width="7.51073" height="7.51073" fill="#FCC028"/>
<rect x="140.451" y="90.1284" width="7.51073" height="7.51073" fill="#FCC028"/>
<rect x="39.0558" y="90.1284" width="7.51073" height="7.51073" fill="#FCC028"/>
<rect x="95.3864" y="90.1284" width="7.51073" height="7.51073" fill="#FCC028"/>
<rect x="151.717" y="90.1284" width="7.51073" height="7.51073" fill="#FCC028"/>
<rect x="50.3219" y="90.1284" width="7.51073" height="7.51073" fill="#FCC028"/>
<rect x="106.652" y="90.1284" width="7.51073" height="7.51073" fill="#FCC028"/>
<rect x="162.983" y="90.1284" width="7.51073" height="7.51073" fill="#FCC028"/>
<rect x="5.25757" y="99.8926" width="7.51073" height="7.51073" fill="#FCC028"/>
<rect x="61.5881" y="99.8926" width="7.51073" height="7.51073" fill="#FCC028"/>
<rect x="117.918" y="99.8926" width="7.51073" height="7.51073" fill="#FCC028"/>
<rect x="16.5236" y="99.8926" width="7.51073" height="7.51073" fill="#FCC028"/>
<rect x="72.8541" y="99.8926" width="7.51073" height="7.51073" fill="#FCC028"/>
<rect x="129.185" y="99.8926" width="7.51073" height="7.51073" fill="#FCC028"/>
<rect x="27.7896" y="99.8926" width="7.51073" height="7.51073" fill="#FCC028"/>
<rect x="84.1201" y="99.8926" width="7.51073" height="7.51073" fill="#FCC028"/>
<rect x="140.451" y="99.8926" width="7.51073" height="7.51073" fill="#FCC028"/>
<rect x="39.0558" y="99.8926" width="7.51073" height="7.51073" fill="#FCC028"/>
<rect x="95.3864" y="99.8926" width="7.51073" height="7.51073" fill="#FCC028"/>
<rect x="151.717" y="99.8926" width="7.51073" height="7.51073" fill="#FCC028"/>
<rect x="50.3219" y="99.8926" width="7.51073" height="7.51073" fill="#FCC028"/>
<rect x="106.652" y="99.8926" width="7.51073" height="7.51073" fill="#FCC028"/>
<rect x="162.983" y="99.8926" width="7.51073" height="7.51073" fill="#FCC028"/>
<rect x="5.25757" y="109.657" width="7.51073" height="7.51073" fill="#FCC028"/>
<rect x="61.5881" y="109.657" width="7.51073" height="7.51073" fill="#FCC028"/>
<rect x="117.918" y="109.657" width="7.51073" height="7.51073" fill="#FCC028"/>
<rect x="16.5236" y="109.657" width="7.51073" height="7.51073" fill="#FCC028"/>
<rect x="72.8541" y="109.657" width="7.51073" height="7.51073" fill="#FCC028"/>
<rect x="129.185" y="109.657" width="7.51073" height="7.51073" fill="#FCC028"/>
<rect x="27.7896" y="109.657" width="7.51073" height="7.51073" fill="#FCC028"/>
<rect x="84.1201" y="109.657" width="7.51073" height="7.51073" fill="#FCC028"/>
<rect x="140.451" y="109.657" width="7.51073" height="7.51073" fill="#FCC028"/>
<rect x="39.0558" y="109.657" width="7.51073" height="7.51073" fill="#FCC028"/>
<rect x="95.3864" y="109.657" width="7.51073" height="7.51073" fill="#FCC028"/>
<rect x="151.717" y="109.657" width="7.51073" height="7.51073" fill="#FCC028"/>
<rect x="50.3219" y="109.657" width="7.51073" height="7.51073" fill="#FCC028"/>
<rect x="106.652" y="109.657" width="7.51073" height="7.51073" fill="#FCC028"/>
<rect x="162.983" y="109.657" width="7.51073" height="7.51073" fill="#FCC028"/>
<rect x="5.25757" y="119.421" width="7.51073" height="7.51073" fill="#FCC028"/>
<rect x="61.5881" y="119.421" width="7.51073" height="7.51073" fill="#FCC028"/>
<rect x="117.918" y="119.421" width="7.51073" height="7.51073" fill="#FCC028"/>
<rect x="16.5236" y="119.421" width="7.51073" height="7.51073" fill="#FCC028"/>
<rect x="72.8541" y="119.421" width="7.51073" height="7.51073" fill="#FCC028"/>
<rect x="129.185" y="119.421" width="7.51073" height="7.51073" fill="#FCC028"/>
<rect x="27.7896" y="119.421" width="7.51073" height="7.51073" fill="#FCC028"/>
<rect x="84.1201" y="119.421" width="7.51073" height="7.51073" fill="#FCC028"/>
<rect x="140.451" y="119.421" width="7.51073" height="7.51073" fill="#FCC028"/>
<rect x="39.0558" y="119.421" width="7.51073" height="7.51073" fill="#FCC028"/>
<rect x="95.3864" y="119.421" width="7.51073" height="7.51073" fill="#FCC028"/>
<rect x="151.717" y="119.421" width="7.51073" height="7.51073" fill="#FCC028"/>
<rect x="50.3219" y="119.421" width="7.51073" height="7.51073" fill="#FCC028"/>
<rect x="106.652" y="119.421" width="7.51073" height="7.51073" fill="#FCC028"/>
<rect x="162.983" y="119.421" width="7.51073" height="7.51073" fill="#FCC028"/>
<rect x="5.25757" y="129.185" width="7.51073" height="7.51073" fill="#FCC028"/>
<rect x="61.5881" y="129.185" width="7.51073" height="7.51073" fill="#FCC028"/>
<rect x="117.918" y="129.185" width="7.51073" height="7.51073" fill="#FCC028"/>
<rect x="16.5236" y="129.185" width="7.51073" height="7.51073" fill="#FCC028"/>
<rect x="72.8541" y="129.185" width="7.51073" height="7.51073" fill="#FCC028"/>
<rect x="129.185" y="129.185" width="7.51073" height="7.51073" fill="#FCC028"/>
<rect x="27.7896" y="129.185" width="7.51073" height="7.51073" fill="#FCC028"/>
<rect x="84.1201" y="129.185" width="7.51073" height="7.51073" fill="#FCC028"/>
<rect x="140.451" y="129.185" width="7.51073" height="7.51073" fill="#FCC028"/>
<rect x="39.0558" y="129.185" width="7.51073" height="7.51073" fill="#FCC028"/>
<rect x="95.3864" y="129.185" width="7.51073" height="7.51073" fill="#FCC028"/>
<rect x="151.717" y="129.185" width="7.51073" height="7.51073" fill="#FCC028"/>
<rect x="50.3219" y="129.185" width="7.51073" height="7.51073" fill="#FCC028"/>
<rect x="106.652" y="129.185" width="7.51073" height="7.51073" fill="#FCC028"/>
<rect x="162.983" y="129.185" width="7.51073" height="7.51073" fill="#FCC028"/>
<rect x="5.25757" y="138.948" width="7.51073" height="7.51073" fill="#FCC028"/>
<rect x="61.5881" y="138.948" width="7.51073" height="7.51073" fill="#FCC028"/>
<rect x="117.918" y="138.948" width="7.51073" height="7.51073" fill="#FCC028"/>
<rect x="16.5236" y="138.948" width="7.51073" height="7.51073" fill="#FCC028"/>
<rect x="72.8541" y="138.948" width="7.51073" height="7.51073" fill="#FCC028"/>
<rect x="129.185" y="138.948" width="7.51073" height="7.51073" fill="#FCC028"/>
<rect x="27.7896" y="138.948" width="7.51073" height="7.51073" fill="#FCC028"/>
<rect x="84.1201" y="138.948" width="7.51073" height="7.51073" fill="#FCC028"/>
<rect x="140.451" y="138.948" width="7.51073" height="7.51073" fill="#FCC028"/>
<rect x="39.0558" y="138.948" width="7.51073" height="7.51073" fill="#FCC028"/>
<rect x="95.3864" y="138.948" width="7.51073" height="7.51073" fill="#FCC028"/>
<rect x="151.717" y="138.948" width="7.51073" height="7.51073" fill="#FCC028"/>
<rect x="50.3219" y="138.948" width="7.51073" height="7.51073" fill="#FCC028"/>
<rect x="106.652" y="138.948" width="7.51073" height="7.51073" fill="#FCC028"/>
<rect x="162.983" y="138.948" width="7.51073" height="7.51073" fill="#FCC028"/>
<rect x="5.25757" y="148.712" width="7.51073" height="7.51073" fill="#FCC028"/>
<rect x="61.5881" y="148.712" width="7.51073" height="7.51073" fill="#FCC028"/>
<rect x="117.918" y="148.712" width="7.51073" height="7.51073" fill="#FCC028"/>
<rect x="16.5236" y="148.712" width="7.51073" height="7.51073" fill="#FCC028"/>
<rect x="72.8541" y="148.712" width="7.51073" height="7.51073" fill="#FCC028"/>
<rect x="129.185" y="148.712" width="7.51073" height="7.51073" fill="#FCC028"/>
<rect x="27.7896" y="148.712" width="7.51073" height="7.51073" fill="#FCC028"/>
<rect x="84.1201" y="148.712" width="7.51073" height="7.51073" fill="#FCC028"/>
<rect x="140.451" y="148.712" width="7.51073" height="7.51073" fill="#FCC028"/>
<rect x="39.0558" y="148.712" width="7.51073" height="7.51073" fill="#FCC028"/>
<rect x="95.3864" y="148.712" width="7.51073" height="7.51073" fill="#FCC028"/>
<rect x="151.717" y="148.712" width="7.51073" height="7.51073" fill="#FCC028"/>
<rect x="50.3219" y="148.712" width="7.51073" height="7.51073" fill="#FCC028"/>
<rect x="106.652" y="148.712" width="7.51073" height="7.51073" fill="#FCC028"/>
<rect x="162.983" y="148.712" width="7.51073" height="7.51073" fill="#FCC028"/>
</svg>
